<?xml version="1.0" ?><svg style="enable-background:new 0 0 32 32;" version="1.1" viewBox="0 0 32 32" xml:space="preserve" xmlns="http://www.w3.org/2000/svg" xmlns:xlink="http://www.w3.org/1999/xlink"><style type="text/css">
	.st0{display:none;}
	.st1{fill:none;}
</style><g class="st0" id="grid"/><g id="Layer_2"><path class="st1" d="M16,7c-3.52,0-6.57,2.04-8.05,4.99c3.05,0.51,6.75,0.95,10.22,0.94c-0.43-2.38-1.16-4.43-1.79-5.91   C16.25,7.01,16.13,7,16,7z"/><path class="st1" d="M18.68,7.41c0.57,1.51,1.14,3.38,1.49,5.47c1.44-0.08,2.81-0.26,4.03-0.56C23.15,9.99,21.15,8.18,18.68,7.41z"/><path class="st1" d="M19.11,24.43c1.57-0.58,2.93-1.58,3.95-2.87c-0.96-0.15-1.96-0.25-2.98-0.3   C19.85,22.32,19.54,23.38,19.11,24.43z"/><path class="st1" d="M24.82,14.22c-1.36,0.35-2.85,0.55-4.39,0.65c0.13,1.41,0.13,2.9-0.04,4.42c1.3,0.07,2.57,0.22,3.79,0.45   C24.7,18.59,25,17.33,25,16C25,15.39,24.94,14.79,24.82,14.22z"/><path class="st1" d="M9.29,21.99C10.96,23.85,13.37,25,16,25c0.23,0,0.45-0.02,0.68-0.03c0.62-1.24,1.07-2.5,1.37-3.74   C14.91,21.24,11.78,21.6,9.29,21.99z"/><path d="M26.72,13.58c-0.15-0.65-0.34-1.28-0.6-1.88c-1.46-3.42-4.61-5.95-8.4-6.55C17.16,5.06,16.59,5,16,5   c-0.19,0-0.38,0.02-0.57,0.03c-4.26,0.22-7.89,2.87-9.52,6.59c-0.27,0.61-0.47,1.25-0.63,1.91C5.11,14.32,5,15.15,5,16h2   c0-0.72,0.1-1.43,0.26-2.1c2.92,0.51,6.89,1.05,10.78,1.05c0.14,0,0.27-0.01,0.4-0.01c0.13,1.37,0.13,2.81-0.05,4.28   c-3.81-0.02-7.6,0.47-10.37,0.94c-0.38-0.73-0.67-1.52-0.84-2.36l-1.96,0.4c0.17,0.82,0.43,1.6,0.77,2.34   c0.3,0.65,0.65,1.27,1.06,1.84c1.92,2.68,5.01,4.44,8.44,4.6C15.66,26.99,15.83,27,16,27c0.67,0,1.31-0.07,1.95-0.18   c3.03-0.54,5.63-2.32,7.25-4.8c0.37-0.57,0.69-1.17,0.96-1.8C26.7,18.92,27,17.49,27,16C27,15.17,26.9,14.36,26.72,13.58z    M7.95,11.99C9.43,9.04,12.48,7,16,7c0.13,0,0.25,0.01,0.38,0.02c0.64,1.49,1.36,3.54,1.79,5.91C14.7,12.94,11,12.51,7.95,11.99z    M16.68,24.97C16.45,24.98,16.23,25,16,25c-2.63,0-5.04-1.15-6.71-3.01c2.49-0.39,5.62-0.75,8.75-0.77   C17.75,22.47,17.3,23.72,16.68,24.97z M24.2,12.32c-1.22,0.3-2.59,0.48-4.03,0.56c-0.35-2.09-0.92-3.96-1.49-5.47   C21.15,8.18,23.15,9.99,24.2,12.32z M19.11,24.43c0.43-1.06,0.74-2.12,0.96-3.17c1.02,0.05,2.02,0.15,2.98,0.3   C22.04,22.85,20.68,23.85,19.11,24.43z M20.39,19.28c0.17-1.52,0.16-3,0.04-4.42c1.54-0.1,3.03-0.3,4.39-0.65   C24.94,14.79,25,15.39,25,16c0,1.33-0.3,2.59-0.82,3.73C22.96,19.49,21.69,19.35,20.39,19.28z"/></g></svg>